<svg xmlns="http://www.w3.org/2000/svg" viewBox="0 0 200 200">
  <!-- Bowl -->
  <ellipse cx="100" cy="145" rx="60" ry="18" fill="#435060" opacity="0.1"/>
  <path d="M40,130 Q40,160 100,160 Q160,160 160,130" fill="none" stroke="#435060" stroke-width="1.5"/>
  <line x1="40" y1="130" x2="160" y2="130" stroke="#435060" stroke-width="1"/>
  <!-- Jelly cubes -->
  <rect x="55" y="118" width="18" height="16" fill="#435060" opacity="0.7" transform="rotate(3,64,126)"/>
  <rect x="78" y="115" width="16" height="18" fill="#435060" opacity="0.75" transform="rotate(-2,86,124)"/>
  <rect x="100" y="117" width="17" height="15" fill="#435060" opacity="0.65" transform="rotate(5,108,124)"/>
  <rect x="122" y="119" width="15" height="14" fill="#435060" opacity="0.7" transform="rotate(-4,129,126)"/>
  <rect x="68" y="130" width="16" height="14" fill="#435060" opacity="0.6" transform="rotate(2,76,137)"/>
  <rect x="90" y="132" width="17" height="13" fill="#435060" opacity="0.55" transform="rotate(-3,98,138)"/>
  <rect x="112" y="131" width="15" height="14" fill="#435060" opacity="0.6" transform="rotate(4,119,138)"/>
  <!-- Cream drizzle -->
  <path d="M60,115 Q80,108 100,115 Q120,122 140,112" fill="none" stroke="#ff48b0" stroke-width="2.5" opacity="0.5"/>
  <path d="M70,125 Q90,118 110,125" fill="none" stroke="#ff48b0" stroke-width="1.5" opacity="0.3"/>
</svg>
