<svg xmlns="http://www.w3.org/2000/svg" viewBox="0 0 200 200">
  <!-- Glass -->
  <rect x="65" y="40" width="55" height="130" rx="2" fill="none" stroke="#0078bf" stroke-width="2"/>
  <!-- Whisky color -->
  <rect x="67" y="55" width="51" height="113" rx="1" fill="#ffe800" opacity="0.2"/>
  <!-- Ice cubes in blue -->
  <rect x="72" y="55" width="16" height="14" rx="2" fill="#0078bf" opacity="0.25" transform="rotate(5,80,62)"/>
  <rect x="92" y="60" width="14" height="13" rx="2" fill="#0078bf" opacity="0.2" transform="rotate(-8,99,66)"/>
  <rect x="78" y="75" width="15" height="13" rx="2" fill="#0078bf" opacity="0.22" transform="rotate(3,85,81)"/>
  <!-- Bubbles -->
  <circle cx="80" cy="100" r="1.5" fill="#0078bf" opacity="0.15"/>
  <circle cx="95" cy="110" r="1" fill="#0078bf" opacity="0.12"/>
  <circle cx="85" cy="120" r="1.5" fill="#0078bf" opacity="0.1"/>
  <circle cx="100" cy="130" r="1" fill="#0078bf" opacity="0.12"/>
  <circle cx="78" cy="140" r="1.5" fill="#0078bf" opacity="0.08"/>
  <circle cx="90" cy="95" r="1" fill="#ffe800" opacity="0.2"/>
  <circle cx="102" cy="145" r="1" fill="#0078bf" opacity="0.1"/>
  <!-- Lemon twist -->
  <path d="M108,45 Q115,35 120,42" fill="none" stroke="#ffe800" stroke-width="2.5" opacity="0.7"/>
</svg>
