<svg xmlns="http://www.w3.org/2000/svg" viewBox="0 0 200 200">
  <!-- Pile of fried chicken -->
  <!-- Shadow layer -->
  <circle cx="73" cy="122" r="22" fill="#435060" opacity="0.2" transform="translate(2,2)"/>
  <circle cx="113" cy="118" r="20" fill="#435060" opacity="0.2" transform="translate(2,2)"/>
  <circle cx="93" cy="105" r="21" fill="#435060" opacity="0.2" transform="translate(2,2)"/>
  <!-- Chicken pieces -->
  <circle cx="70" cy="120" r="22" fill="#ff6c2f" opacity="0.85"/>
  <circle cx="110" cy="116" r="20" fill="#ff6c2f" opacity="0.8"/>
  <circle cx="90" cy="103" r="21" fill="#ff6c2f" opacity="0.9"/>
  <circle cx="100" cy="130" r="18" fill="#ff6c2f" opacity="0.75"/>
  <!-- Crust texture dots -->
  <circle cx="65" cy="115" r="2" fill="#435060" opacity="0.2"/>
  <circle cx="78" cy="125" r="1.5" fill="#435060" opacity="0.15"/>
  <circle cx="105" cy="110" r="2" fill="#435060" opacity="0.2"/>
  <circle cx="115" cy="122" r="1.5" fill="#435060" opacity="0.15"/>
  <circle cx="85" cy="98" r="2" fill="#435060" opacity="0.2"/>
  <circle cx="95" cy="108" r="1.5" fill="#435060" opacity="0.15"/>
  <circle cx="95" cy="135" r="1.5" fill="#435060" opacity="0.15"/>
  <!-- Lemon wedge -->
  <path d="M145,130 L155,115 L160,132 Z" fill="#ffe800" opacity="0.6"/>
  <path d="M145,130 L155,115 L160,132 Z" fill="none" stroke="#ff6c2f" stroke-width="1" opacity="0.4"/>
</svg>
