<svg xmlns="http://www.w3.org/2000/svg" viewBox="0 0 200 200">
  <!-- Small dish -->
  <ellipse cx="100" cy="145" rx="55" ry="15" fill="#00a95c" opacity="0.1"/>
  <ellipse cx="100" cy="140" rx="55" ry="15" fill="none" stroke="#435060" stroke-width="1.5"/>
  <!-- Spinach bundle -->
  <rect x="70" y="120" width="60" height="18" rx="3" fill="#00a95c" opacity="0.7"/>
  <rect x="72" y="122" width="56" height="14" rx="2" fill="#435060" opacity="0.15"/>
  <!-- Cut marks -->
  <line x1="85" y1="120" x2="85" y2="138" stroke="#435060" stroke-width="1" opacity="0.2"/>
  <line x1="100" y1="120" x2="100" y2="138" stroke="#435060" stroke-width="1" opacity="0.2"/>
  <line x1="115" y1="120" x2="115" y2="138" stroke="#435060" stroke-width="1" opacity="0.2"/>
  <!-- Bonito flakes -->
  <path d="M80,115 Q83,108 86,114" fill="#435060" opacity="0.2" transform="rotate(10,83,112)"/>
  <path d="M95,112 Q98,105 101,111" fill="#435060" opacity="0.18" transform="rotate(-5,98,108)"/>
  <path d="M110,114 Q113,107 116,113" fill="#435060" opacity="0.15" transform="rotate(15,113,110)"/>
  <path d="M88,108 Q91,102 94,108" fill="#00a95c" opacity="0.15" transform="rotate(-10,91,105)"/>
  <path d="M105,110 Q108,103 111,109" fill="#435060" opacity="0.12" transform="rotate(8,108,106)"/>
</svg>
